<?xml version="1.0" encoding="UTF-8" standalone="no" ?>
<!DOCTYPE svg PUBLIC "-//W3C//DTD SVG 1.1//EN" "http://www.w3.org/Graphics/SVG/1.1/DTD/svg11.dtd">
<svg xmlns="http://www.w3.org/2000/svg" xmlns:xlink="http://www.w3.org/1999/xlink" version="1.1" width="640" height="480" viewBox="0 0 640 480" xml:space="preserve">
<desc>Created with Fabric.js 3.6.3</desc>
<defs>
</defs>
<g transform="matrix(5.39 0 0 5.39 346.5 370.5)"  >
<g style=""   >
		<g transform="matrix(1 0 0 1 0 0)"  >
<rect style="stroke: none; stroke-width: 1; stroke-dasharray: none; stroke-linecap: butt; stroke-dashoffset: 0; stroke-linejoin: miter; stroke-miterlimit: 4; fill: rgb(255,255,255); fill-opacity: 0; fill-rule: nonzero; opacity: 1;"  x="-150" y="-150" rx="0" ry="0" width="300" height="300" />
</g>
		<g transform="matrix(2.97 0 0 2.97 0.11 39.88)"  >
<path style="stroke: none; stroke-width: 1; stroke-dasharray: none; stroke-linecap: butt; stroke-dashoffset: 0; stroke-linejoin: miter; stroke-miterlimit: 4; fill: rgb(0,0,0); fill-rule: nonzero; opacity: 1;"  transform=" translate(-44.16, -8.52)" d="M 0.45 6.22 C 0.45 7.13 0.97 8.04 2.11 8.48 C 3.05 8.86 3.95 8.82 4.76 9.41 C 5.26 9.77 5.57 10.33 5.57 10.95 C 5.57 12.04 4.65 12.89 3.54 12.89 C 2.72 12.89 2.09 12.45 1.74 11.97 C 1.32 11.41 1.47 11.76 1.37 10.78 C 1.29 10.09 1.27 9.97 0.98 9.97 C 0.74 9.97 0.69 10.11 0.67 10.26 C 0.55 11.86 0.35 12.38 0.35 12.54 C 0.35 12.63 0.41 12.75 0.6 12.75 C 0.73 12.75 0.83 12.71 0.97 12.71 C 1.16 12.71 1.26 12.78 1.4 12.91 C 1.93 13.37 2.72 13.68 3.53 13.68 C 5.25 13.68 6.59 12.33 6.59 10.67 C 6.59 9.39 5.84 8.48 4.83 8.05 C 3.93 7.67 2.93 7.69 2.17 7.14 C 1.74 6.83 1.46 6.38 1.46 5.87 C 1.46 5.14 2.03 4.55 2.81 4.55 C 3.43 4.55 3.98 4.91 4.35 5.33 C 5.03 6.1 4.87 6.61 5.32 6.62 L 5.33 6.62 C 5.47 6.62 5.57 6.55 5.57 6.41 C 5.57 6.3 5.52 5.96 5.52 5.28 C 5.52 4.58 5.57 4.23 5.57 4.12 C 5.57 3.96 5.47 3.85 5.35 3.85 C 5.01 3.85 4.97 4.41 4.76 4.41 C 4.58 4.41 4.09 3.85 2.95 3.85 C 1.48 3.85 0.45 4.97 0.45 6.22 Z M 8.88 8.15 C 8.83 8.15 8.82 8.11 8.82 8.06 L 8.82 7.53 C 8.82 7.46 8.81 7.36 8.69 7.36 C 8.61 7.36 8.58 7.41 8.43 7.49 C 7.29 8.22 7.29 8.18 7.29 8.3 C 7.29 8.39 7.38 8.44 7.42 8.47 C 7.94 8.86 7.98 8.85 7.98 9.13 L 7.98 12.6 C 7.92 13.16 7.2 12.78 7.2 13.22 C 7.2 13.36 7.22 13.5 7.39 13.5 C 7.49 13.5 7.8 13.44 8.41 13.44 C 9.06 13.44 9.56 13.52 9.6 13.52 C 9.73 13.52 9.79 13.43 9.79 13.3 C 9.79 13.16 9.79 13.03 9.59 13.01 C 8.97 12.91 8.85 12.94 8.85 12.53 L 8.85 9.16 C 8.85 8.95 8.88 8.86 8.9 8.79 C 8.99 8.64 9.35 8.25 9.97 8.25 C 10.36 8.25 10.71 8.4 10.95 8.58 C 11.34 8.88 11.4 9.34 11.4 9.8 L 11.4 12.39 C 11.4 12.73 11.34 12.87 11.03 12.92 C 10.44 13.02 10.28 12.99 10.28 13.22 C 10.28 13.4 10.3 13.52 10.47 13.52 C 10.5 13.52 11.07 13.44 11.77 13.44 C 12.47 13.44 13.03 13.52 13.08 13.52 C 13.23 13.52 13.26 13.36 13.26 13.23 C 13.26 13.08 13.17 12.99 12.99 12.96 C 12.42 12.89 12.31 12.92 12.31 12.66 L 12.31 12.64 C 12.31 12.6 12.32 12.57 12.32 12.53 L 12.32 9.83 C 12.32 9.23 12.24 8.9 12.24 8.89 C 12.24 8.68 12.89 8.25 13.51 8.25 C 13.94 8.25 14.24 8.44 14.38 8.55 C 14.91 9.02 14.95 9.87 14.95 10.6 L 14.95 12.54 C 14.95 12.74 14.95 12.88 14.67 12.92 C 14.11 13.03 14.01 13.01 14.01 13.29 C 14.01 13.47 14.15 13.52 14.24 13.52 C 14.35 13.52 14.71 13.44 15.43 13.44 C 16.13 13.44 16.49 13.52 16.6 13.52 C 16.79 13.52 16.81 13.37 16.81 13.24 C 16.81 13.15 16.8 13.02 16.62 12.99 C 16.09 12.88 15.95 12.92 15.95 12.47 L 15.95 10.7 C 15.95 10.14 15.95 9.59 15.79 9.06 C 15.47 7.91 14.62 7.53 13.9 7.53 C 13.64 7.53 13.15 7.59 12.54 7.94 C 12.01 8.25 12.07 8.32 11.96 8.32 C 11.93 8.32 11.91 8.32 11.9 8.3 C 11.87 8.29 11.3 7.53 10.39 7.53 C 9.55 7.53 8.95 8.15 8.88 8.15 Z M 17.42 8.61 C 17.42 8.93 17.71 9.11 17.98 9.11 C 18.16 9.11 18.24 9.02 18.28 8.96 C 18.31 8.9 18.69 8.02 19.49 8.02 C 19.85 8.02 20.13 8.22 20.3 8.4 C 20.58 8.72 20.64 9.07 20.64 9.52 L 20.64 10.02 C 20.64 10.12 20.62 10.19 20.52 10.22 C 20.5 10.23 18.82 10.29 18.06 10.89 C 17.72 11.16 17.47 11.61 17.47 12.14 L 17.47 12.15 C 17.47 13.01 18.1 13.72 19.07 13.72 C 19.59 13.72 20.05 13.54 20.37 13.33 C 20.72 13.09 20.68 13.02 20.75 13.02 C 20.76 13.02 20.76 13.03 20.78 13.03 C 20.8 13.05 21.14 13.61 21.77 13.61 C 22.5 13.61 22.85 12.82 22.85 12.5 C 22.85 12.38 22.78 12.32 22.72 12.32 C 22.51 12.32 22.54 12.78 22.11 12.78 C 21.97 12.78 21.63 12.71 21.63 12.17 L 21.63 9.41 C 21.63 9.24 21.62 9.07 21.6 8.9 C 21.46 7.53 20.1 7.36 19.57 7.36 C 18.41 7.36 17.42 8.11 17.42 8.61 Z M 19.4 12.95 C 19.22 12.95 18.97 12.92 18.8 12.77 C 18.58 12.57 18.51 12.22 18.51 12 C 18.51 11.65 18.66 11.4 18.84 11.24 C 19.31 10.81 20.26 10.74 20.51 10.74 C 20.64 10.74 20.65 10.81 20.65 11.14 L 20.65 11.72 L 20.65 12.05 C 20.65 12.18 20.64 12.28 20.57 12.38 C 20.5 12.47 20.09 12.95 19.4 12.95 Z M 24.96 8.16 C 24.93 8.16 24.92 8.13 24.92 8.09 L 24.92 7.53 C 24.92 7.41 24.91 7.25 24.75 7.25 C 24.71 7.25 24.67 7.28 24.63 7.29 C 23.17 8.01 23.16 7.98 23.16 8.05 C 23.17 8.11 23.2 8.13 23.21 8.15 C 23.87 8.62 23.98 8.61 23.98 8.89 L 23.98 12.6 C 23.98 12.81 23.93 12.89 23.73 12.94 C 23.35 13.03 23.1 12.95 23.1 13.29 C 23.1 13.43 23.18 13.52 23.32 13.52 C 23.37 13.52 23.97 13.44 24.75 13.44 C 25.51 13.44 26.12 13.52 26.17 13.52 C 26.35 13.52 26.36 13.36 26.36 13.24 C 26.36 12.92 26.18 12.98 25.34 12.91 C 25 12.88 24.99 12.64 24.99 12.49 L 24.99 12.43 L 24.99 9.07 C 24.99 8.97 24.99 8.9 25.05 8.82 C 25.13 8.69 25.69 8.25 26.14 8.25 C 26.6 8.25 26.61 8.6 26.96 8.6 C 27.2 8.6 27.38 8.41 27.54 8.32 C 27.65 8.22 27.9 8.06 27.92 7.83 L 27.92 7.81 C 27.92 7.42 27.27 7.2 26.82 7.2 C 26.67 7.2 26.54 7.21 26.42 7.25 C 26.04 7.39 25.02 8.16 24.96 8.16 Z M 28.5 8.33 L 28.95 8.33 C 29.04 8.33 29.05 8.39 29.05 8.46 C 29.05 8.76 28.99 10.93 28.99 11.55 C 28.99 11.7 28.99 11.84 29.01 12 C 29.11 13.31 29.86 13.71 30.42 13.71 C 31.19 13.71 31.88 13.01 32.37 12.45 C 32.4 12.4 32.47 12.32 32.47 12.21 C 32.47 12.08 32.37 11.96 32.21 11.96 C 31.91 11.96 31.36 12.8 30.69 12.8 C 30.1 12.8 29.97 12.25 29.97 11.76 C 29.97 11.42 29.97 11.1 29.99 8.48 C 29.99 8.39 30.03 8.36 30.13 8.36 L 31.77 8.36 C 31.89 8.36 31.96 8.34 32.02 8.29 C 32.09 8.2 32.14 7.97 32.14 7.88 C 32.14 7.62 31.91 7.62 31.78 7.62 C 31.74 7.62 31.71 7.6 31.67 7.6 L 30.41 7.6 C 30.24 7.6 30.13 7.56 30.13 7.32 C 30.13 7.13 30.14 6.54 30.14 6.34 C 30.14 6.16 30.04 6.12 29.96 6.12 C 29.81 6.12 29.72 6.3 29.68 6.37 C 28.92 7.66 28.22 7.91 28.22 8.15 C 28.22 8.32 28.38 8.33 28.5 8.33 Z M 43.02 13.52 C 43.2 13.52 43.26 13.38 43.26 13.24 C 43.26 12.96 43.23 12.88 43.01 12.85 C 41.92 12.75 41.73 12.81 41.73 12.45 L 41.73 5.11 C 41.73 4.93 41.75 4.73 42.04 4.73 L 44.1 4.73 C 44.53 4.73 44.51 4.82 45.16 5.96 C 45.22 6.06 45.3 6.23 45.49 6.23 C 45.64 6.23 45.75 6.09 45.75 5.92 C 45.75 5.84 45.7 5.56 45.42 4.13 C 45.39 3.95 45.36 3.81 45.14 3.81 L 36.97 3.81 C 36.86 3.81 36.72 3.82 36.68 4.02 C 36.29 5.82 36.27 5.87 36.27 5.95 L 36.27 5.96 C 36.27 6.16 36.4 6.31 36.58 6.31 C 36.85 6.31 36.86 6.15 37.44 5.01 C 37.53 4.82 37.59 4.73 37.97 4.73 L 40.05 4.73 C 40.42 4.73 40.43 4.97 40.43 5.17 L 40.43 12.26 C 40.43 12.54 40.38 12.74 39.96 12.78 C 39.09 12.87 38.93 12.81 38.93 13.16 C 38.93 13.36 38.99 13.52 39.21 13.52 C 39.27 13.52 40.11 13.44 41.12 13.44 C 42.14 13.44 42.95 13.52 43.02 13.52 Z M 47.82 8.16 C 47.8 8.16 47.78 8.13 47.78 8.09 L 47.78 7.53 C 47.78 7.41 47.77 7.25 47.61 7.25 C 47.57 7.25 47.53 7.28 47.49 7.29 C 46.03 8.01 46.02 7.98 46.02 8.05 C 46.03 8.11 46.06 8.13 46.07 8.15 C 46.73 8.62 46.84 8.61 46.84 8.89 L 46.84 12.6 C 46.84 12.81 46.79 12.89 46.59 12.94 C 46.21 13.03 45.96 12.95 45.96 13.29 C 45.96 13.43 46.05 13.52 46.19 13.52 C 46.23 13.52 46.83 13.44 47.61 13.44 C 48.37 13.44 48.99 13.52 49.03 13.52 C 49.21 13.52 49.22 13.36 49.22 13.24 C 49.22 12.92 49.04 12.98 48.2 12.91 C 47.87 12.88 47.85 12.64 47.85 12.49 L 47.85 12.43 L 47.85 9.07 C 47.85 8.97 47.85 8.9 47.91 8.82 C 47.99 8.69 48.55 8.25 49 8.25 C 49.46 8.25 49.48 8.6 49.83 8.6 C 50.06 8.6 50.25 8.41 50.4 8.32 C 50.51 8.22 50.76 8.06 50.78 7.83 L 50.78 7.81 C 50.78 7.42 50.13 7.2 49.69 7.2 C 49.53 7.2 49.41 7.21 49.28 7.25 C 48.9 7.39 47.88 8.16 47.82 8.16 Z M 51.21 8.61 C 51.21 8.93 51.51 9.11 51.77 9.11 C 51.95 9.11 52.04 9.02 52.08 8.96 C 52.11 8.9 52.49 8.02 53.28 8.02 C 53.65 8.02 53.93 8.22 54.1 8.4 C 54.38 8.72 54.43 9.07 54.43 9.52 L 54.43 10.02 C 54.43 10.12 54.42 10.19 54.32 10.22 C 54.29 10.23 52.61 10.29 51.86 10.89 C 51.52 11.16 51.27 11.61 51.27 12.14 L 51.27 12.15 C 51.27 13.01 51.9 13.72 52.86 13.72 C 53.38 13.72 53.84 13.54 54.17 13.33 C 54.52 13.09 54.47 13.02 54.54 13.02 C 54.56 13.02 54.56 13.03 54.57 13.03 C 54.6 13.05 54.94 13.61 55.57 13.61 C 56.29 13.61 56.64 12.82 56.64 12.5 C 56.64 12.38 56.57 12.32 56.52 12.32 C 56.31 12.32 56.34 12.78 55.9 12.78 C 55.76 12.78 55.43 12.71 55.43 12.17 L 55.43 9.41 C 55.43 9.24 55.41 9.07 55.4 8.9 C 55.26 7.53 53.9 7.36 53.37 7.36 C 52.21 7.36 51.21 8.11 51.21 8.61 Z M 53.2 12.95 C 53.02 12.95 52.77 12.92 52.6 12.77 C 52.37 12.57 52.3 12.22 52.3 12 C 52.3 11.65 52.46 11.4 52.64 11.24 C 53.1 10.81 54.05 10.74 54.31 10.74 C 54.43 10.74 54.45 10.81 54.45 11.14 L 54.45 11.72 L 54.45 12.05 C 54.45 12.18 54.43 12.28 54.36 12.38 C 54.29 12.47 53.89 12.95 53.2 12.95 Z M 58.7 8.16 C 58.7 8.15 58.72 8.11 58.72 8.08 L 58.72 7.53 C 58.72 7.42 58.67 7.32 58.55 7.32 C 58.49 7.32 58.45 7.35 58.41 7.38 C 57.11 8.08 57.08 8.06 57.08 8.18 L 57.08 8.19 C 57.08 8.25 57.12 8.29 57.16 8.33 C 57.79 8.81 57.79 8.78 57.79 9.11 L 57.79 12.46 C 57.79 12.7 57.78 12.88 57.43 12.94 C 56.99 13.01 56.88 12.99 56.88 13.27 C 56.88 13.47 57.02 13.52 57.11 13.52 C 57.15 13.52 57.67 13.44 58.34 13.44 C 59.02 13.44 59.6 13.54 59.64 13.54 C 59.77 13.54 59.82 13.43 59.82 13.29 C 59.82 12.98 59.65 13.01 59.07 12.91 C 58.77 12.87 58.76 12.67 58.76 12.52 L 58.76 12.47 L 58.76 9.16 C 58.76 9.1 58.76 9.03 58.77 8.97 C 58.83 8.72 59.4 8.06 60.21 8.06 C 60.54 8.06 61.31 8.19 61.61 8.9 C 61.78 9.32 61.8 10.16 61.8 10.42 L 61.8 12.59 C 61.8 12.82 61.75 12.89 61.57 12.92 C 61.01 13.02 60.84 12.99 60.84 13.24 C 60.84 13.38 60.87 13.52 61.04 13.52 C 61.07 13.52 61.57 13.44 62.19 13.44 C 62.89 13.44 63.24 13.52 63.36 13.52 C 63.45 13.52 63.57 13.48 63.57 13.24 C 63.57 13.15 63.56 13.02 63.38 12.99 C 62.89 12.92 62.71 12.95 62.71 12.56 L 62.71 12.53 C 62.71 10.6 62.72 10.35 62.72 10.11 C 62.72 9.87 62.72 9.63 62.69 9.39 C 62.55 7.66 61.33 7.38 60.7 7.38 L 60.68 7.38 C 59.47 7.39 58.81 8.22 58.76 8.22 L 58.74 8.22 C 58.73 8.22 58.7 8.2 58.7 8.16 Z M 64.15 9.11 C 64.15 9.8 64.57 10.5 65.7 10.82 C 66.15 10.95 67.38 11.09 67.38 12.01 C 67.38 12.57 66.88 12.95 66.25 12.95 C 65.44 12.95 64.79 12.42 64.65 12.12 C 64.46 11.73 64.68 11.26 64.33 11.26 C 64.12 11.26 64.08 11.33 64.08 11.69 C 64.08 11.89 64.09 12.15 64.09 12.53 C 64.09 12.74 64.12 12.85 64.26 13.01 C 64.67 13.48 65.55 13.71 66.19 13.71 C 67.58 13.71 68.32 12.71 68.32 11.82 C 68.32 11.59 68.26 11.13 67.9 10.71 C 67.38 10.11 66.72 10.07 66.01 9.87 C 64.97 9.58 64.9 9.06 64.9 8.86 C 64.9 8.41 65.31 8.12 65.79 8.12 C 66.25 8.12 66.75 8.41 66.93 8.67 C 67.13 8.95 67.09 9.35 67.38 9.35 C 67.49 9.35 67.7 9.31 67.7 9.13 C 67.7 9.07 67.52 8.15 67.44 7.66 C 67.42 7.59 67.38 7.39 67.21 7.39 C 67.05 7.39 66.99 7.53 66.86 7.53 C 66.79 7.53 66.58 7.46 66.16 7.46 C 64.9 7.46 64.15 8.27 64.15 9.11 Z M 71.64 13.24 C 71.64 13.06 71.57 12.99 71.4 12.96 C 70.84 12.87 70.69 12.89 70.69 12.45 L 70.69 3.58 C 70.69 3.46 70.66 3.32 70.49 3.32 C 70.42 3.32 70.36 3.35 70.32 3.37 C 68.63 4.26 68.6 4.23 68.6 4.34 L 68.6 4.35 C 68.6 4.51 68.78 4.56 69.34 4.9 C 69.58 5.04 69.66 5.04 69.66 5.25 L 69.66 12.38 C 69.66 12.66 69.64 12.87 69.27 12.91 C 68.8 12.96 68.7 12.95 68.7 13.22 L 68.7 13.26 C 68.7 13.36 68.71 13.51 68.89 13.51 C 68.94 13.51 69.48 13.44 70.15 13.44 C 70.85 13.44 71.43 13.52 71.47 13.52 C 71.61 13.52 71.64 13.41 71.64 13.24 Z M 72.2 8.61 C 72.2 8.93 72.49 9.11 72.76 9.11 C 72.94 9.11 73.02 9.02 73.07 8.96 C 73.09 8.9 73.47 8.02 74.27 8.02 C 74.63 8.02 74.91 8.22 75.08 8.4 C 75.36 8.72 75.42 9.07 75.42 9.52 L 75.42 10.02 C 75.42 10.12 75.4 10.19 75.31 10.22 C 75.28 10.23 73.6 10.29 72.84 10.89 C 72.51 11.16 72.25 11.61 72.25 12.14 L 72.25 12.15 C 72.25 13.01 72.88 13.72 73.85 13.72 C 74.37 13.72 74.83 13.54 75.15 13.33 C 75.5 13.09 75.46 13.02 75.53 13.02 C 75.54 13.02 75.54 13.03 75.56 13.03 C 75.59 13.05 75.92 13.61 76.55 13.61 C 77.28 13.61 77.63 12.82 77.63 12.5 C 77.63 12.38 77.56 12.32 77.5 12.32 C 77.29 12.32 77.32 12.78 76.89 12.78 C 76.75 12.78 76.41 12.71 76.41 12.17 L 76.41 9.41 C 76.41 9.24 76.4 9.07 76.38 8.9 C 76.24 7.53 74.89 7.36 74.35 7.36 C 73.19 7.36 72.2 8.11 72.2 8.61 Z M 74.19 12.95 C 74 12.95 73.75 12.92 73.58 12.77 C 73.36 12.57 73.29 12.22 73.29 12 C 73.29 11.65 73.44 11.4 73.63 11.24 C 74.09 10.81 75.04 10.74 75.29 10.74 C 75.42 10.74 75.43 10.81 75.43 11.14 L 75.43 11.72 L 75.43 12.05 C 75.43 12.18 75.42 12.28 75.35 12.38 C 75.28 12.47 74.87 12.95 74.19 12.95 Z M 78.27 8.33 L 78.72 8.33 C 78.81 8.33 78.82 8.39 78.82 8.46 C 78.82 8.76 78.76 10.93 78.76 11.55 C 78.76 11.7 78.76 11.84 78.78 12 C 78.88 13.31 79.63 13.71 80.19 13.71 C 80.96 13.71 81.65 13.01 82.14 12.45 C 82.17 12.4 82.24 12.32 82.24 12.21 C 82.24 12.08 82.14 11.96 81.98 11.96 C 81.68 11.96 81.13 12.8 80.46 12.8 C 79.87 12.8 79.74 12.25 79.74 11.76 C 79.74 11.42 79.74 11.1 79.76 8.48 C 79.76 8.39 79.8 8.36 79.9 8.36 L 81.54 8.36 C 81.66 8.36 81.73 8.34 81.79 8.29 C 81.86 8.2 81.91 7.97 81.91 7.88 C 81.91 7.62 81.68 7.62 81.55 7.62 C 81.51 7.62 81.48 7.6 81.44 7.6 L 80.18 7.6 C 80.01 7.6 79.9 7.56 79.9 7.32 C 79.9 7.13 79.91 6.54 79.91 6.34 C 79.91 6.16 79.81 6.12 79.73 6.12 C 79.58 6.12 79.49 6.3 79.45 6.37 C 78.69 7.66 77.99 7.91 77.99 8.15 C 77.99 8.32 78.15 8.33 78.27 8.33 Z M 82.68 10.56 C 82.68 12.95 84.24 13.71 85.39 13.71 C 86.38 13.71 87.29 13.2 87.86 12.46 C 87.93 12.38 87.96 12.29 87.96 12.24 C 87.96 12.11 87.86 12.03 87.74 12.03 C 87.6 12.03 87.49 12.15 87.42 12.22 C 86.98 12.64 86.37 12.91 85.75 12.91 C 83.99 12.91 83.68 11.05 83.68 10.88 C 83.68 10.75 83.76 10.77 86.66 9.77 C 87.07 9.63 87.79 9.49 87.79 9.07 L 87.79 9.06 C 87.79 8.93 87.74 8.82 87.68 8.75 C 87.16 8.04 86.24 7.41 85.27 7.41 C 83.87 7.41 82.68 8.6 82.68 10.56 Z M 86.44 9.1 C 86.44 9.16 86.39 9.23 86.31 9.27 C 86.28 9.28 83.73 10.28 83.69 10.28 C 83.66 10.28 83.62 10.26 83.62 10.18 C 83.62 8.93 84.15 8.18 84.97 8.18 C 85.75 8.18 86.44 8.93 86.44 9.1 Z" stroke-linecap="round" />
</g>
		<g transform="matrix(0.62 0 0 0.62 6.73 -25.73)"  >
<linearGradient id="SVGID_17" gradientUnits="objectBoundingBox" gradientTransform="matrix(0.91 0.42 -0.42 0.91 60.85 47.75)"  x1="0" y1="0" x2="1" y2="0">
<stop offset="0%" style="stop-color:rgb(48,9,42);stop-opacity: 1"/>
<stop offset="100%" style="stop-color:rgb(203,60,97);stop-opacity: 1"/>
</linearGradient>
<path style="stroke: none; stroke-width: 1; stroke-dasharray: none; stroke-linecap: butt; stroke-dashoffset: 0; stroke-linejoin: miter; stroke-miterlimit: 4; fill: url(#SVGID_17); fill-rule: nonzero; opacity: 1;"  transform=" translate(-60.85, -47.75)" d="M 65.5 15.1 h 3.8 V 24 c 0 0.8 0.7 1.5 1.5 1.5 s 1.5 -0.7 1.5 -1.5 V 13.6 c 0 -0.8 -0.7 -1.5 -1.5 -1.5 h -5.3 c -0.8 0 -1.5 0.7 -1.5 1.5 s 0.6 1.5 1.5 1.5 z M 79.5 63.4 H 42.3 c -0.8 0 -1.5 0.7 -1.5 1.5 s 0.7 1.5 1.5 1.5 h 37.1 c 0.8 0 1.5 -0.7 1.5 -1.5 s -0.6 -1.5 -1.4 -1.5 z M 79.5 69.1 H 42.3 c -0.8 0 -1.5 0.7 -1.5 1.5 s 0.7 1.5 1.5 1.5 h 37.1 c 0.8 0 1.5 -0.7 1.5 -1.5 s -0.6 -1.5 -1.4 -1.5 z M 79.5 74.7 H 42.3 c -0.8 0 -1.5 0.7 -1.5 1.5 s 0.7 1.5 1.5 1.5 h 37.1 c 0.8 0 1.5 -0.7 1.5 -1.5 s -0.6 -1.5 -1.4 -1.5 z M 66.9 80.4 H 42.3 c -0.8 0 -1.5 0.7 -1.5 1.5 s 0.7 1.5 1.5 1.5 h 24.5 c 0.8 0 1.5 -0.7 1.5 -1.5 s -0.6 -1.5 -1.4 -1.5 z" stroke-linecap="round" />
</g>
		<g transform="matrix(0.62 0 0 0.62 0.13 -24.29)"  >
<linearGradient id="SVGID_18" gradientUnits="objectBoundingBox" gradientTransform="matrix(0.91 0.42 -0.42 0.91 50.03 50)"  x1="0" y1="0" x2="1" y2="0">
<stop offset="0%" style="stop-color:rgb(48,9,42);stop-opacity: 1"/>
<stop offset="100%" style="stop-color:rgb(203,60,97);stop-opacity: 1"/>
</linearGradient>
<path style="stroke: none; stroke-width: 1; stroke-dasharray: none; stroke-linecap: butt; stroke-dashoffset: 0; stroke-linejoin: miter; stroke-miterlimit: 4; fill: url(#SVGID_18); fill-rule: nonzero; opacity: 1;"  transform=" translate(-50.03, -50)" d="M 95.6 25.7 c -0.6 -0.6 -1.5 -0.6 -2.1 0 l -2.4 2.4 c -1.8 -2.2 -4.5 -3.6 -7.5 -3.6 c -3.9 0 -7.2 2.3 -8.8 5.6 h -15 V 4 c 0 -2.2 -1.8 -4 -4 -4 H 8 C 5.8 0 4 1.8 4 4 v 63.2 c 0 2.2 1.8 4 4 4 h 24.9 v 15.2 c 0 0.4 0.2 0.8 0.4 1.1 l 12.1 12.1 c 0.1 0.1 0.3 0.2 0.4 0.3 h 0.1 c 0.1 0 0.3 0.1 0.4 0.1 H 84.7 c 2.4 0 4.3 -1.9 4.3 -4.3 V 42.4 c 2.6 -1.7 4.4 -4.7 4.4 -8.1 c 0 -1.2 -0.2 -2.4 -0.7 -3.5 l 3 -3 c 0.5 -0.5 0.5 -1.5 -0.1 -2.1 z M 8 68.2 c -0.6 0 -1 -0.5 -1 -1 V 4 c 0 -0.6 0.5 -1 1 -1 h 47.9 c 0.6 0 1 0.5 1 1 v 26.1 H 37.2 c -2.3 0 -4.1 1.8 -4.3 4 H 13.3 c -0.8 0 -1.5 0.7 -1.5 1.5 s 0.7 1.5 1.5 1.5 h 19.6 v 2.7 H 13.3 c -0.8 0 -1.5 0.7 -1.5 1.5 s 0.7 1.5 1.5 1.5 h 19.6 v 2.7 H 13.3 c -0.8 0 -1.5 0.7 -1.5 1.5 s 0.7 1.5 1.5 1.5 h 19.6 v 2.7 H 13.3 c -0.8 0 -1.5 0.7 -1.5 1.5 s 0.7 1.5 1.5 1.5 h 19.6 v 14.1 H 8 v -0.1 z m 35.7 19.7 c 0.7 0 1.3 0.6 1.3 1.3 v 5.7 l -6.9 -7 h 5.6 z m 42.2 7.8 c 0 0.7 -0.6 1.3 -1.3 1.3 H 47.9 v -7.7 v -0.1 c 0 -2.4 -1.9 -4.3 -4.3 -4.3 h -7.8 V 34.4 c 0 -0.7 0.6 -1.3 1.3 -1.3 h 36.8 c 0 0.4 -0.1 0.8 -0.1 1.2 c 0 5.4 4.4 9.7 9.7 9.7 c 0.8 0 1.6 -0.1 2.4 -0.3 v 52 z m 4.4 -61.4 a 6.7 6.7 0 1 1 -6.7 -6.7 c 2.2 0 4.2 1.1 5.4 2.7 l -4.8 4.8 l -2.6 -2.6 c -0.6 -0.6 -1.5 -0.6 -2.1 0 s -0.6 1.5 0 2.1 l 3.7 3.7 c 0.3 0.3 0.7 0.4 1.1 0.4 s 0.8 -0.2 1.1 -0.4 l 5 -5 c -0.1 0.3 -0.1 0.6 -0.1 1 z" stroke-linecap="round" />
</g>
		<g transform="matrix(0.62 0 0 0.62 -1.96 -34.61)"  >
<linearGradient id="SVGID_19" gradientUnits="objectBoundingBox" gradientTransform="matrix(0.91 0.42 -0.42 0.91 46.75 33.4)"  x1="0" y1="0" x2="1" y2="0">
<stop offset="0%" style="stop-color:rgb(48,9,42);stop-opacity: 1"/>
<stop offset="100%" style="stop-color:rgb(203,60,97);stop-opacity: 1"/>
</linearGradient>
<path style="stroke: none; stroke-width: 1; stroke-dasharray: none; stroke-linecap: butt; stroke-dashoffset: 0; stroke-linejoin: miter; stroke-miterlimit: 4; fill: url(#SVGID_19); fill-rule: nonzero; opacity: 1;"  transform=" translate(-46.75, -33.4)" d="M 57.3 54.2 h 7.1 l 1.4 4.2 h 4.3 l -7.1 -19 h -4.3 l -7.2 19 h 4.2 l 1.6 -4.2 z m 3.6 -10.1 l 2.4 7 h -4.9 l 2.5 -7 z M 23.4 22.9 c 0 1.9 1.2 3.1 3.1 3.1 c 2.3 0 4.6 -1.5 5.4 -2.2 c 0.7 -0.7 2.8 -3 3.7 -4.8 c 1.1 0.5 1.7 1.4 1.7 2.4 c 0 2.1 -2.1 3.4 -5.3 3.7 l 1.6 2.2 c 5.1 -0.7 6.9 -2.8 6.9 -6 c 0 -2.7 -1.7 -4.3 -3.8 -5 c 0 -0.2 0.1 -0.4 0.2 -0.6 l -2.9 -0.5 c 0 0.3 -0.1 0.3 -0.1 0.6 c -1 -0.1 -2.2 0.1 -2.6 0.2 v -2.5 c 2.4 -0.1 4.8 -0.3 7 -0.6 L 38 10 c -2.3 0.5 -4.5 0.7 -6.6 0.8 c 0.1 -0.6 0.1 -2.2 0.1 -2.2 l -3.1 -0.2 c 0 0.8 -0.1 1.7 -0.1 2.5 h -3.8 l 0.1 2.8 h 0.3 c 0.8 0 2.1 0 3.3 -0.1 v 3.2 c -2.8 1.2 -4.8 3.4 -4.8 6.1 z m 9.3 -4.5 c -0.4 0.8 -0.9 1.6 -1.5 2.2 c -0.1 -0.7 -0.1 -1.3 -0.2 -2 c 0.3 0 1.2 -0.2 1.7 -0.2 z m -4.4 1.2 c 0.1 1.1 0.2 2.2 0.4 3.1 c -0.5 0.3 -1 0.4 -1.5 0.4 c -1 0 -1 -0.6 -1 -0.9 c 0.1 -1 0.9 -1.9 2.1 -2.6 z" stroke-linecap="round" />
</g>
</g>
</g>
</svg>